<svg width="512" height="512" viewBox="0 0 512 512" fill="none" xmlns="http://www.w3.org/2000/svg">
<rect width="511.75" height="511.75" rx="74.9634" fill="#0079FF"/>
<path d="M87.2029 250.003C84.7878 250.003 82.83 251.961 82.83 254.376C82.83 256.791 84.7878 258.749 87.2029 258.749V250.003ZM345.499 254.376C345.499 267.256 355.94 277.698 368.821 277.698C381.701 277.698 392.143 267.256 392.143 254.376C392.143 241.495 381.701 231.054 368.821 231.054C355.94 231.054 345.499 241.495 345.499 254.376ZM87.2029 258.749H368.821V250.003H87.2029V258.749Z" fill="#F9F9F9"/>
<path d="M85.4672 251.863C83.2516 252.825 82.2347 255.4 83.1959 257.615C84.1571 259.831 86.7323 260.848 88.9479 259.887L85.4672 251.863ZM269.713 176.7C274.839 188.516 288.573 193.94 300.39 188.814C312.206 183.687 317.629 169.953 312.503 158.136C307.377 146.32 293.642 140.897 281.826 146.023C270.01 151.149 264.586 164.884 269.713 176.7ZM88.9479 259.887L292.848 171.43L289.368 163.407L85.4672 251.863L88.9479 259.887Z" fill="#F9F9F9"/>
<path d="M80.3969 250.877C78.7348 252.629 78.8077 255.397 80.5597 257.059C82.3118 258.721 85.0796 258.648 86.7417 256.896L80.3969 250.877ZM189.848 141.859C199.193 150.723 213.954 150.335 222.819 140.99C231.684 131.646 231.295 116.884 221.951 108.019C212.606 99.1546 197.845 99.5433 188.98 108.888C180.115 118.232 180.504 132.994 189.848 141.859ZM86.7417 256.896L209.072 127.949L202.727 121.929L80.3969 250.877L86.7417 256.896Z" fill="#F9F9F9"/>
<path d="M88.8427 251.819C86.6028 250.916 84.055 252 83.1519 254.24C82.2488 256.48 83.3325 259.028 85.5723 259.931L88.8427 251.819ZM269.478 329.364C264.661 341.31 270.441 354.898 282.387 359.715C294.333 364.531 307.921 358.752 312.738 346.806C317.554 334.86 311.775 321.271 299.829 316.455C287.883 311.638 274.294 317.418 269.478 329.364ZM85.5723 259.931L289.473 342.14L292.743 334.029L88.8427 251.819L85.5723 259.931Z" fill="#F9F9F9"/>
<path d="M90.4988 252.996C88.9087 251.178 86.1461 250.994 84.3284 252.584C82.5107 254.174 82.3261 256.936 83.9162 258.754L90.4988 252.996ZM190.544 374.005C180.85 382.486 179.865 397.219 188.346 406.914C196.826 416.609 211.56 417.593 221.255 409.112C230.949 400.632 231.934 385.898 223.453 376.203C214.973 366.509 200.239 365.525 190.544 374.005ZM83.9162 258.754L202.608 394.438L209.191 388.68L90.4988 252.996L83.9162 258.754Z" fill="#F9F9F9"/>
<circle cx="87.4573" cy="255.875" r="62.4695" fill="#F9F9F9"/>
<circle cx="255.875" cy="74.9634" r="49.9756" fill="#F9F9F9"/>
<circle cx="436.787" cy="255.875" r="49.9756" fill="#F9F9F9"/>
<circle cx="355.826" cy="368.32" r="49.9756" fill="#F9F9F9"/>
<circle cx="355.826" cy="143.43" r="49.9756" fill="#F9F9F9"/>
<circle cx="255.875" cy="436.787" r="49.9756" fill="#F9F9F9"/>
</svg>
