<svg width="2048" height="512" viewBox="0 0 2048 512" fill="none" xmlns="http://www.w3.org/2000/svg">
<g clip-path="url(#clip0_60_130)">
<rect x="28" y="8" width="496.757" height="496.757" rx="72.7672" fill="#0079FF"/>
<path d="M112.648 250.679C110.304 250.679 108.403 252.579 108.403 254.923C108.403 257.268 110.304 259.168 112.648 259.168V250.679ZM363.377 254.923C363.377 267.426 373.512 277.562 386.015 277.562C398.518 277.562 408.654 267.426 408.654 254.923C408.654 242.42 398.518 232.285 386.015 232.285C373.512 232.285 363.377 242.42 363.377 254.923ZM112.648 259.168H386.015V250.679H112.648V259.168Z" fill="#F9F9F9"/>
<path d="M110.963 252.485C108.813 253.418 107.825 255.917 108.758 258.068C109.691 260.219 112.191 261.206 114.342 260.273L110.963 252.485ZM289.811 179.523C294.787 190.993 308.119 196.258 319.589 191.282C331.059 186.306 336.324 172.974 331.348 161.504C326.372 150.033 313.04 144.769 301.569 149.745C290.099 154.721 284.835 168.053 289.811 179.523ZM114.342 260.273L312.269 174.407L308.89 166.619L110.963 252.485L114.342 260.273Z" fill="#F9F9F9"/>
<path d="M106.042 251.527C104.428 253.228 104.499 255.914 106.2 257.528C107.9 259.141 110.587 259.07 112.201 257.37L106.042 251.527ZM212.286 145.702C221.357 154.308 235.686 153.93 244.291 144.86C252.896 135.789 252.519 121.46 243.448 112.855C234.378 104.25 220.049 104.627 211.443 113.698C202.838 122.768 203.216 137.097 212.286 145.702ZM112.201 257.37L230.947 132.2L224.788 126.357L106.042 251.527L112.201 257.37Z" fill="#F9F9F9"/>
<path d="M114.24 252.442C112.066 251.565 109.592 252.617 108.716 254.791C107.839 256.966 108.891 259.439 111.065 260.315L114.24 252.442ZM289.583 327.715C284.908 339.311 290.518 352.501 302.114 357.176C313.71 361.852 326.9 356.241 331.576 344.645C336.251 333.049 330.641 319.859 319.045 315.184C307.449 310.508 294.258 316.119 289.583 327.715ZM111.065 260.315L308.992 340.117L312.167 332.243L114.24 252.442L111.065 260.315Z" fill="#F9F9F9"/>
<path d="M115.847 253.584C114.304 251.819 111.622 251.64 109.858 253.184C108.093 254.727 107.914 257.409 109.458 259.173L115.847 253.584ZM212.962 371.048C203.551 379.28 202.596 393.582 210.828 402.993C219.06 412.403 233.362 413.359 242.773 405.127C252.183 396.894 253.139 382.592 244.907 373.182C236.675 363.771 222.372 362.816 212.962 371.048ZM109.458 259.173L224.672 390.882L231.062 385.292L115.847 253.584L109.458 259.173Z" fill="#F9F9F9"/>
<circle cx="112.895" cy="256.379" r="60.6393" fill="#F9F9F9"/>
<circle cx="276.379" cy="80.7672" r="48.5115" fill="#F9F9F9"/>
<circle cx="451.99" cy="256.379" r="48.5115" fill="#F9F9F9"/>
<circle cx="373.402" cy="365.529" r="48.5115" fill="#F9F9F9"/>
<circle cx="373.402" cy="147.228" r="48.5115" fill="#F9F9F9"/>
<circle cx="276.379" cy="431.99" r="48.5115" fill="#F9F9F9"/>
<path d="M667 435V64H729.5V435H667ZM811.531 435V168H874.031V435H811.531ZM843.031 124C831.365 124 821.698 120.333 814.031 113C806.698 105.667 803.031 96.8333 803.031 86.5C803.031 75.8333 806.698 67 814.031 60C821.698 52.6667 831.365 49 843.031 49C854.698 49 864.198 52.5 871.531 59.5C879.198 66.1667 883.031 74.6667 883.031 85C883.031 96 879.365 105.333 872.031 113C864.698 120.333 855.031 124 843.031 124ZM1107.56 165C1128.9 165 1147.9 169.167 1164.56 177.5C1181.56 185.833 1194.9 198.667 1204.56 216C1214.23 233 1219.06 255 1219.06 282V435H1156.56V290C1156.56 266.333 1150.9 248.667 1139.56 237C1128.56 225.333 1113.06 219.5 1093.06 219.5C1078.4 219.5 1065.4 222.5 1054.06 228.5C1042.73 234.5 1033.9 243.5 1027.56 255.5C1021.56 267.167 1018.56 282 1018.56 300V435H956.063V168H1015.56V240L1005.06 218C1014.4 201 1027.9 188 1045.56 179C1063.56 169.667 1084.23 165 1107.56 165ZM1349.35 375.5L1350.85 297L1490.35 168H1565.35L1446.85 287L1413.85 314.5L1349.35 375.5ZM1298.35 435V64H1360.85V435H1298.35ZM1499.85 435L1402.35 314.5L1441.85 264.5L1575.85 435H1499.85ZM1624.72 435V153C1624.72 125 1632.89 102.667 1649.22 86C1665.89 69 1689.55 60.5 1720.22 60.5C1731.22 60.5 1741.55 61.6667 1751.22 64C1761.22 66.3333 1769.55 70 1776.22 75L1759.22 122C1754.55 118.333 1749.22 115.667 1743.22 114C1737.22 112 1731.05 111 1724.72 111C1711.72 111 1701.89 114.667 1695.22 122C1688.55 129 1685.22 139.667 1685.22 154V184L1687.22 212V435H1624.72ZM1580.72 220V170H1758.72V220H1580.72ZM1802.72 435V64H1865.22V435H1802.72Z" fill="#555555"/>
</g>
<defs>
<clipPath id="clip0_60_130">
<rect width="2048" height="512" fill="white"/>
</clipPath>
</defs>
</svg>
